<?xml version="1.0" standalone="no"?>
<!DOCTYPE svg PUBLIC "-//W3C//DTD SVG 20010904//EN"
 "http://www.w3.org/TR/2001/REC-SVG-20010904/DTD/svg10.dtd">
<svg version="1.0" xmlns="http://www.w3.org/2000/svg"
 width="500.000000pt" height="500.000000pt" viewBox="0 0 500.000000 500.000000"
 preserveAspectRatio="xMidYMid meet">
<metadata>
Created by potrace 1.14, written by Peter Selinger 2001-2017
</metadata>
<g transform="translate(0.000000,500.000000) scale(0.100000,-0.100000)"
fill="#000000" stroke="none">
<path d="M2334 4950 c-496 -33 -977 -221 -1374 -537 -109 -86 -287 -264 -373
-373 -231 -291 -412 -666 -485 -1010 -74 -345 -74 -715 0 -1060 73 -344 254
-719 485 -1010 86 -109 264 -287 373 -373 356 -283 774 -461 1225 -522 160
-22 470 -22 630 0 451 61 869 239 1225 522 109 86 287 264 373 373 179 224
330 502 414 760 93 283 126 487 125 785 0 399 -82 746 -261 1100 -127 251
-263 439 -460 635 -199 197 -390 334 -646 460 -389 192 -819 278 -1251 250z
m806 -1449 c0 -4 -209 -433 -464 -952 l-464 -944 -181 -3 c-99 -1 -181 0 -181
3 0 5 683 1391 846 1718 l94 187 175 0 c96 0 175 -4 175 -9z m-1461 -525 c39
-74 71 -138 71 -143 0 -5 -137 -81 -305 -169 -246 -128 -302 -161 -290 -170 9
-6 146 -80 305 -164 160 -84 290 -156 290 -161 0 -4 -32 -69 -71 -143 l-71
-136 -36 20 c-20 10 -217 122 -437 248 l-400 229 -2 114 -3 114 433 247 c237
136 435 247 439 247 3 1 38 -59 77 -133z m2176 -114 l430 -248 3 -111 3 -111
-433 -247 c-238 -136 -436 -249 -440 -251 -6 -4 -148 258 -148 275 0 5 134 79
298 166 163 86 300 159 304 163 3 4 -130 79 -298 166 -167 88 -304 163 -304
168 0 20 138 278 148 278 4 -1 201 -112 437 -248z"/>
</g>
</svg>
